# AST/ASF file generated using VICON BodyLanguage
# -----------------------------------------------
:version 1.10
:name VICON
:units
  mass 1.0
  length 0.45
  angle deg
:documentation
   .ast/.asf automatically generated from VICON data using
   VICON BodyBuilder and BodyLanguage model FoxedUp or BRILLIANT.MOD
:root
   order TX TY TZ RX RY RZ
   axis XYZ
   position 0 0 0  
   orientation 0 0 0 
:bonedata
  begin
     id 1 
     name lhipjoint
     direction 0.714689 -0.624256 0.315473 
     length 2.45343 
     axis 0 0 0  XYZ
  end
  begin
     id 2 
     name lfemur
     direction 0.34202 -0.939693 0  
     length 6.59069  
     axis 0 0 20  XYZ
    dof rx ry rz
    limits (-160.0 20.0)
           (-70.0 70.0)
           (-60.0 70.0)
  end
  begin
     id 3 
     name ltibia
     direction 0.34202 -0.939693 0   
     length 6.73476   
     axis 0 0 20   XYZ
    dof rx
    limits (-10.0 170.0)
  end
  begin
     id 4 
     name lfoot
     direction 0.0718085 -0.197292 0.977711   
     length 1.52607   
     axis -90 7.62852e-016 20   XYZ
    dof rx rz
    limits (-45.0 90.0)
           (-70.0 20.0)
  end
  begin
     id 5 
     name ltoes
     direction 1.53553e-011 -4.22024e-011 1   
     length 0.777832   
     axis -90 7.62852e-016 20   XYZ
    dof rx
    limits (-90.0 20.0)
  end
  begin
     id 6 
     name rhipjoint
     direction -0.727419 -0.612432 0.309497   
     length 2.50079  
     axis 0 0 0  XYZ 
  end
  begin
     id 7 
     name rfemur
     direction -0.34202 -0.939693 0   
     length 6.51665   
     axis 0 0 -20   XYZ
    dof rx ry rz
    limits (-160.0 20.0)
           (-70.0 70.0)
           (-70.0 60.0)
  end
  begin
     id 8 
     name rtibia
     direction -0.34202 -0.939693 0   
     length 6.48919   
     axis 0 0 -20   XYZ
    dof rx
    limits (-10.0 170.0)
 end
 begin
     id 9 
     name rfoot
     direction -0.112205 -0.308282 0.944655   
     length 1.68717  
     axis -90 -7.62852e-016 -20   XYZ
    dof rx rz
    limits (-45.0 90.0)
           (-20.0 70.0)
  end
  begin
     id 10 
     name rtoes
     direction -1.53583e-011 -4.21993e-011 1   
     length 0.846859   
     axis -90 -7.62852e-016 -20   XYZ
    dof rx
    limits (-90.0 20.0)
  end
  begin
     id 11 
     name lowerback
     direction -0.00119603 0.996364 -0.0851956   
     length 1.67242   
     axis 0 0 0   XYZ
    dof rx ry rz
    limits (-20.0 45.0)
           (-30.0 30.0)
           (-30.0 30.0)
  end
  begin
     id 12 
     name upperback
     direction -0.00531001 0.998318 0.0577248   
     length 1.64819   
     axis 0 0 0   XYZ
    dof rx ry rz
    limits (-20.0 45.0)
           (-30.0 30.0)
           (-30.0 30.0)
  end
  begin
     id 13 
     name thorax
     direction -0.00653676 0.995132 0.0983291   
     length 1.67429   
     axis 0 0 0   XYZ
    dof rx ry rz
    limits (-20.0 45.0)
           (-30.0 30.0)
           (-30.0 30.0)
  end
  begin
     id 14 
     name lowerneck
     direction 0.0141424 0.999886 0.00525412   
     length 1.59623   
     axis 0 0 0   XYZ
    dof rx ry rz
    limits (-20.0 45.0)
           (-30.0 30.0)
           (-30.0 30.0)
  end
  begin
     id 15 
     name upperneck
     direction -0.0640064 0.987178 -0.146232   
     length 1.59576   
     axis 0 0 0   XYZ
    dof rx ry rz
    limits (-20.0 45.0)
           (-30.0 30.0)
           (-30.0 30.0)
  end
  begin
     id 16
     name head
     direction -0.0222942 0.998496 -0.0500859  
     length 1.60959  
     axis 0 0 0   XYZ
    dof rx ry rz
    limits (-20.0 45.0)
           (-30.0 30.0)
           (-30.0 30.0)
  end
  begin
     id 17 
     name lclavicle
     direction 0.908549 0.392612 0.142806  
     length 2.80649  
     axis 0 0 0   XYZ
    dof ry rz
    limits (-20.0 10.0)
           (0.0 20.0)
  end
  begin
     id 18 
     name lhumerus
     direction 1 -4.48968e-011 1.08832e-028   
     length 4.2884   
     axis -180 -30 -90   XYZ
    dof rx ry rz
    limits (-60.0 90.0)
           (-90.0 90.0)
           (-90.0 90.0)
  end
  begin
     id 19
     name lradius
     direction 1 -4.48952e-011 -3.02642e-028   
     length 3.06552   
     axis -180 -30 -90   XYZ
    dof rx
    limits (-10.0 170.0)
  end
  begin
     id 20
     name lwrist
     direction 1 -4.49014e-011 1.58672e-027   
     length 1.53276   
     axis -1.65735e-015 90 90   XYZ
    dof ry
    limits (-180.0 0.0)
 end
  begin
     id 21 
     name lhand
     direction 1 -4.48928e-011 3.17344e-027   
     length 0.753045   
     axis -2.02492e-015 90 90   XYZ
    dof rx rz
    limits (-90.0 90.0)
           (-45.0 45.0)
  end
  begin
     id 22 
     name lfingers
     direction 1 -4.48958e-011 6.34687e-027   
     length 0.607124   
     axis -4.04985e-015 90 90   XYZ
    dof rx
    limits (0.0 90.0)
  end
  begin
     id 23
     name lthumb
     direction 0.707107 -6.34905e-011 0.707107   
     length 0.871712   
     axis -90 45 2.85299e-015   XYZ
    dof rx rz
    limits (-45.0 45.0)
           (-45.0 45.0)
  end
  begin
     id 24 
     name rclavicle
     direction -0.885098 0.45949 0.0739604   
     length 2.9478  
     axis 0 0 0   XYZ 
    dof ry rz
    limits (-10.0 20.0)
           (-20.0 0.0)
  end
  begin
     id 25 
     name rhumerus
     direction -1 -4.4898e-011 -2.61739e-027  
     length 4.52172   
     axis -180 30 90   XYZ
    dof rx ry rz
    limits (-90.0 60.0)
           (-90.0 90.0)
           (-90.0 90.0)
  end
  begin
     id 26 
     name rradius
     direction -1 -4.48945e-011 9.02552e-028   
     length 2.8914   
     axis -180 30 90   XYZ
    dof rx
    limits (-10.0 170.0)
  end
  begin
     id 27 
     name rwrist
     direction -1 -4.49018e-011 1.58672e-027   
     length 1.4457   
     axis -1.65735e-015 -90 -90   XYZ
    dof ry
    limits (-180.0 0.0)
  end
  begin
     id 28
     name rhand
     direction -1 -4.48825e-011 3.17344e-027   
     length 0.680541   
     axis -2.02492e-015 -90 -90   XYZ
    dof rx rz
    limits (-90.0 90.0)
           (-45.0 45.0)
  end
  begin
     id 29
     name rfingers
     direction -1 -4.49067e-011 6.34687e-027   
     length 0.54867   
     axis -4.04985e-015 -90 -90   XYZ
    dof rx
    limits (0.0 90.0)
  end
  begin
     id 30
     name rthumb
     direction -0.707107 -6.34833e-011 0.707107   
     length 0.787783   
     axis -90 -45 -2.85299e-015   XYZ
    dof rx rz
    limits (-45.0 45.0)
           (-45.0 45.0)
  end
:hierarchy
  begin
    root lhipjoint rhipjoint lowerback
    lhipjoint lfemur
    lfemur ltibia
    ltibia lfoot
    lfoot ltoes
    rhipjoint rfemur
    rfemur rtibia
    rtibia rfoot
    rfoot rtoes
    lowerback upperback
    upperback thorax
    thorax lowerneck lclavicle rclavicle
    lowerneck upperneck
    upperneck head
    lclavicle lhumerus
    lhumerus lradius
    lradius lwrist
    lwrist lhand lthumb
    lhand lfingers
    rclavicle rhumerus
    rhumerus rradius
    rradius rwrist
    rwrist rhand rthumb
    rhand rfingers
  end

#!OML:ASF E:\emotionWalksFemale\Project 1\Capture day 1\Session 1\Female1.ASF
:FULLY-SPECIFIED
:DEGREES
88
root 8.79848 15.4224 23.2351 -180.686 1.54862 -179.575
lowerback 9.05252 1.09058 0.99848
upperback -3.8323 1.61852 -0.124016
thorax -9.13435 0.736768 -0.967808
lowerneck -9.9207 -2.04784 -5.21832
upperneck 13.8627 -2.8544 4.35334
head 5.96071 -1.43242 1.9934
rclavicle 2.80845e-014 1.88845e-015
rhumerus -46.7171 1.60613 -83.4303
rradius 39.4678
rwrist 26.3784
rhand -2.64505 -48.6878
rfingers 7.12502
rthumb 23.0546 -77.3287
lclavicle 2.80845e-014 1.88845e-015
lhumerus -41.0292 4.26759 75.7211
lradius 42.1012
lwrist -4.29129
lhand 5.53433 -34.2725
lfingers 7.12502
lthumb 30.8795 -6.84813
rfemur -2.40772 16.4826 26.2547
rtibia 21.5271
rfoot -20.1888 -29.2656
rtoes 11.7233
lfemur -5.18041 -21.3811 -24.0844
ltibia 25.3239
lfoot -23.9534 18.0488
ltoes -31.1452
89
root 8.80463 15.4221 23.2405 -180.727 1.32365 -179.615
lowerback 9.20662 1.03686 0.958688
upperback -3.76425 1.53551 -0.159902
thorax -9.15236 0.695953 -0.972172
lowerneck -9.69428 -2.05632 -5.16797
upperneck 13.4314 -2.85519 4.35596
head 5.78587 -1.42526 1.98741
rclavicle -8.17191e-015 4.96962e-016
rhumerus -46.6114 1.51424 -82.8618
rradius 39.883
rwrist 26.9663
rhand -5.18395 -47.6792
rfingers 7.12502
rthumb 20.6167 -76.6043
lclavicle -8.17191e-015 4.96962e-016
lhumerus -40.5283 3.51804 75.4188
lradius 42.1562
lwrist -4.52305
lhand 6.02661 -33.9634
lfingers 7.12502
lthumb 31.3487 -6.62898
rfemur -2.4232 16.282 26.2455
rtibia 21.6209
rfoot -20.6984 -29.1313
rtoes 13.7815
lfemur -5.19339 -21.2258 -24.0681
ltibia 25.3021
lfoot -23.7784 17.7761
ltoes -31.4395
90
root 8.80821 15.4229 23.2455 -180.751 1.24442 -179.606
lowerback 9.3459 1.0299 1.02971
upperback -3.66773 1.52693 -0.214603
thorax -9.12566 0.684323 -1.07041
lowerneck -9.4828 -2.06728 -4.97673
upperneck 12.8751 -2.85452 4.25867
head 5.57187 -1.41465 1.92698
rclavicle -2.64632e-015 -6.4605e-016
rhumerus -46.2733 1.5325 -82.3542
rradius 40.2221
rwrist 27.1769
rhand -6.06809 -47.3731
rfingers 7.12502
rthumb 19.7669 -76.388
lclavicle -2.64632e-015 -6.4605e-016
lhumerus -39.9232 2.85347 74.9539
lradius 42.1134
lwrist -4.9054
lhand 6.24274 -33.6867
lfingers 7.12502
lthumb 31.5546 -6.3924
rfemur -2.47899 16.0259 26.2411
rtibia 21.7046
rfoot -20.7256 -28.966
rtoes 14.1875
lfemur -5.2056 -21.0072 -24.0138
ltibia 25.2829
lfoot -23.6056 17.6024
ltoes -31.7617
91
root 8.81134 15.4247 23.2513 -180.751 1.11968 -179.566
lowerback 9.54064 0.985643 1.11789
upperback -3.57993 1.4768 -0.211421
thorax -9.1433 0.653196 -1.11111
lowerneck -9.31902 -2.10074 -4.95981
upperneck 12.2957 -2.85938 4.20503
head 5.36305 -1.4107 1.90857
rclavicle 1.35733e-015 -1.98785e-016
rhumerus -45.8252 1.84788 -81.8235
rradius 40.5084
rwrist 27.0462
rhand -5.86499 -47.4632
rfingers 7.12502
rthumb 19.9621 -76.4579
lclavicle 1.35733e-015 -1.98785e-016
lhumerus -39.3405 2.53785 74.3413
lradius 42.0509
lwrist -5.49424
lhand 6.29623 -33.8124
lfingers 7.12502
lthumb 31.6055 -6.52818
rfemur -2.57062 15.6964 26.2527
rtibia 21.7953
rfoot -20.4101 -28.9241
rtoes 12.8441
lfemur -5.25707 -20.8718 -23.914
ltibia 25.2595
lfoot -23.4568 17.3407
ltoes -31.6408
92
root 8.81566 15.4247 23.2568 -180.755 0.957563 -179.522
lowerback 9.75056 0.882329 1.13536
upperback -3.49403 1.34629 -0.123846
thorax -9.17774 0.590176 -1.00838
lowerneck -9.31079 -2.08845 -5.28521
upperneck 11.9077 -2.78645 4.36956
head 5.2446 -1.3703 2.01936
rclavicle 4.01141e-015 -1.83876e-015
rhumerus -45.3958 2.32901 -81.1044
rradius 40.8867
rwrist 27.3238
rhand -6.16932 -47.8384
rfingers 7.12502
rthumb 19.6696 -76.8633
lclavicle 4.01141e-015 -1.83876e-015
lhumerus -38.7283 2.5262 73.6364
lradius 41.914
lwrist -6.29891
lhand 6.30011 -34.3261
lfingers 7.12502
lthumb 31.6092 -7.04253
rfemur -2.66085 15.3738 26.2896
rtibia 21.8991
rfoot -20.2105 -28.9712
rtoes 11.4398
lfemur -5.31282 -20.7306 -23.8081
ltibia 25.2351
lfoot -23.304 17.1113
ltoes -31.9279
93
root 8.81958 15.4245 23.2623 -180.762 0.832601 -179.61
lowerback 9.91287 0.810657 1.0309
upperback -3.39555 1.23467 -0.110323
thorax -9.17036 0.541438 -0.91743
lowerneck -9.36111 -2.03285 -5.55512
upperneck 11.7087 -2.68864 4.63644
head 5.19355 -1.31175 2.15432
rclavicle 2.55625e-015 -2.23633e-016
rhumerus -45.0622 2.78847 -80.3846
rradius 41.4416
rwrist 27.6071
rhand -6.42883 -48.7637
rfingers 7.12502
rthumb 19.4201 -77.8139
lclavicle 2.55625e-015 -2.23633e-016
lhumerus -38.0409 2.35674 72.8305
lradius 41.7167
lwrist -6.82689
lhand 6.33696 -34.7501
lfingers 7.12502
lthumb 31.6443 -7.47346
rfemur -2.75199 15.0236 26.1718
rtibia 22.0044
rfoot -20.0801 -28.9348
rtoes 10.692
lfemur -5.37615 -20.5596 -23.8597
ltibia 25.2318
lfoot -23.133 17.0017
ltoes -32.8364
94
root 8.82451 15.4257 23.2698 -180.704 0.704914 -179.726
lowerback 10.027 0.77977 0.954845
upperback -3.3147 1.17292 -0.200143
thorax -9.14983 0.512138 -0.960411
lowerneck -9.23581 -2.00514 -5.44107
upperneck 11.323 -2.65687 4.68932
head 5.05052 -1.2838 2.15513
rclavicle -1.08431e-014 2.03754e-015
rhumerus -44.7221 3.12395 -79.7971
rradius 41.995
rwrist 27.2337
rhand -6.96543 -49.4867
rfingers 7.12502
rthumb 18.9041 -78.5881
lclavicle -1.08431e-014 2.03754e-015
lhumerus -37.351 1.89696 71.9233
lradius 41.606
lwrist -6.79982
lhand 6.37385 -34.8662
lfingers 7.12502
lthumb 31.6795 -7.59646
rfemur -2.91363 14.7133 25.9965
rtibia 22.1235
rfoot -20.2402 -28.6886
rtoes 11.1767
lfemur -5.53587 -20.3891 -23.8973
ltibia 25.2612
lfoot -23.0909 16.7149
ltoes -33.0314
